<?xml version="1.0" standalone="no"?>
<!DOCTYPE svg PUBLIC "-//W3C//DTD SVG 20010904//EN"
 "http://www.w3.org/TR/2001/REC-SVG-20010904/DTD/svg10.dtd">
<svg version="1.0" xmlns="http://www.w3.org/2000/svg"
 width="180.000000pt" height="180.000000pt" viewBox="0 0 180.000000 180.000000"
 preserveAspectRatio="xMidYMid meet">
<metadata>
Created by potrace 1.14, written by Peter Selinger 2001-2017
</metadata>
<g transform="translate(0.000000,180.000000) scale(0.100000,-0.100000)"
fill="#000000" stroke="none">
<path d="M1695 1781 c-18 -17 -117 -44 -205 -56 -19 -3 -46 -7 -60 -10 -37 -9
-179 -33 -225 -39 -22 -3 -102 -15 -178 -26 -77 -11 -160 -23 -186 -26 l-47
-6 -1 46 c-3 99 -37 113 -155 63 -198 -85 -522 -199 -600 -212 -32 -5 -38 -10
-38 -30 0 -14 3 -25 8 -25 4 0 59 11 122 24 146 31 172 35 534 85 l58 8 -5
-56 c-6 -56 -33 -244 -43 -291 -2 -14 -12 -71 -22 -128 -19 -114 -13 -108
-112 -117 -263 -25 -444 -54 -507 -80 -27 -11 -33 -19 -33 -44 0 -36 4 -39 66
-46 171 -18 232 -29 338 -60 44 -13 103 -33 129 -44 l48 -21 -7 -47 c-3 -27
-8 -55 -9 -63 -2 -9 -6 -43 -10 -75 -7 -58 -10 -62 -72 -121 -67 -62 -76 -86
-41 -108 13 -8 24 -6 45 10 l28 21 0 -138 c0 -110 3 -141 15 -153 13 -14 15
-6 16 72 0 80 6 150 19 212 3 14 8 40 11 58 3 18 10 35 15 38 5 3 38 48 75
100 36 51 67 94 69 94 9 0 84 -77 112 -115 43 -56 92 -152 105 -202 12 -49 37
-69 60 -50 9 7 35 71 58 142 75 231 250 652 274 661 14 4 96 11 246 20 100 5
145 8 198 13 6 1 12 8 12 15 0 12 -11 14 -47 11 -27 -2 -88 -6 -138 -9 -49 -4
-129 -9 -176 -12 l-87 -6 98 194 c54 106 108 218 121 248 25 58 51 92 136 178
58 58 73 96 43 112 -26 14 -33 13 -55 -9z m-970 -134 c2 -27 -11 -45 -30 -45
-5 0 -39 -4 -75 -8 -36 -4 -76 -8 -90 -9 -14 -1 -45 -5 -70 -9 -31 -4 -10 6
65 32 61 21 124 46 140 55 40 22 59 18 60 -16z m795 18 c0 -2 -12 -17 -26 -32
-37 -39 -118 -133 -203 -233 -94 -110 -100 -117 -141 -170 -19 -25 -37 -47
-40 -50 -3 -3 -31 -38 -63 -77 -32 -40 -63 -73 -70 -74 -7 0 -23 -2 -37 -4
-14 -1 -63 -6 -110 -9 -47 -4 -100 -9 -118 -12 l-33 -5 6 43 c4 24 20 106 36
182 16 77 32 151 34 165 10 48 35 186 35 192 0 4 28 10 63 14 34 4 71 9 82 11
11 2 43 6 70 9 89 10 139 16 180 21 22 2 56 7 75 9 19 2 71 7 115 10 44 4 81
7 82 8 4 4 63 6 63 2z m-37 -137 c-234 -302 -428 -516 -449 -495 -5 5 134 175
225 276 101 112 268 275 224 219z m-39 -155 c-9 -21 -28 -65 -43 -98 -15 -33
-40 -91 -56 -130 -16 -38 -33 -75 -39 -81 -10 -10 -186 -29 -186 -20 0 12 325
366 336 366 2 0 -4 -17 -12 -37z m-157 -367 c-7 -31 -198 -478 -245 -574 l-40
-82 -33 57 c-18 32 -48 78 -67 103 -38 48 -112 119 -124 120 -5 0 -8 4 -8 9 0
8 109 137 291 343 21 24 33 28 109 33 47 4 86 8 87 9 2 2 10 3 19 3 11 0 14
-7 11 -21z m-247 -3 c0 -2 -18 -23 -39 -46 -22 -23 -50 -55 -63 -72 -51 -67
-68 -76 -27 -15 62 94 98 137 114 137 8 0 15 -2 15 -4z m-80 -12 c0 -5 -3 -11
-7 -13 -9 -3 -164 -209 -204 -270 l-25 -37 -45 29 -46 28 19 118 c10 65 20
119 21 121 3 2 40 7 167 21 109 12 120 13 120 3z m-333 -38 c-3 -5 -8 -30 -11
-56 -4 -26 -11 -71 -16 -99 -6 -28 -10 -52 -10 -53 0 -2 -18 6 -41 17 -41 20
-274 82 -343 91 -20 3 -39 7 -41 9 -3 3 292 71 309 71 3 0 27 6 53 13 54 14
106 18 100 7z m21 -380 c-22 -29 -41 -53 -43 -53 -3 0 15 110 21 128 3 10 10
10 33 -4 l29 -17 -40 -54z"/>
</g>
</svg>
